<svg width="460" height="64" xmlns="http://www.w3.org/2000/svg" xmlns:xlink="http://www.w3.org/1999/xlink" viewBox="0 0 460 64"><g><defs><clipPath id="tree-9OzCzHKTV0"><rect x="0" y="0" width="160" height="64"></rect></clipPath><clipPath id="msa-9OzCzHKTV0"><rect x="0" y="0" width="300" height="64"></rect></clipPath></defs><g clip-path="url(#tree-9OzCzHKTV0)"><defs></defs><g><path fill="none" stroke="rgb(0,0,0)" paint-order="fill stroke markers" d=" M 20 32 L 20 16 L 52.99999999999999 16" stroke-opacity="0.87" stroke-miterlimit="10" stroke-dasharray=""></path><path fill="none" stroke="rgb(0,0,0)" paint-order="fill stroke markers" d=" M 52.99999999999999 16 L 52.99999999999999 8 L 85.99999999999999 8" stroke-opacity="0.87" stroke-miterlimit="10" stroke-dasharray=""></path><path fill="none" stroke="rgb(0,0,0)" paint-order="fill stroke markers" d=" M 52.99999999999999 16 L 52.99999999999999 24 L 102.49999999999999 24" stroke-opacity="0.87" stroke-miterlimit="10" stroke-dasharray=""></path><path fill="none" stroke="rgb(0,0,0)" paint-order="fill stroke markers" d=" M 20 32 L 20 48 L 52.99999999999999 48" stroke-opacity="0.87" stroke-miterlimit="10" stroke-dasharray=""></path><path fill="none" stroke="rgb(0,0,0)" paint-order="fill stroke markers" d=" M 52.99999999999999 48 L 52.99999999999999 40 L 69.5 40" stroke-opacity="0.87" stroke-miterlimit="10" stroke-dasharray=""></path><path fill="none" stroke="rgb(0,0,0)" paint-order="fill stroke markers" d=" M 52.99999999999999 48 L 52.99999999999999 56 L 119 56" stroke-opacity="0.87" stroke-miterlimit="10" stroke-dasharray=""></path><path fill="white" stroke="black" paint-order="fill stroke markers" d=" M 22.5 32 A 2.5 2.5 0 1 1 22.499998750000103 31.997500000416665" stroke-miterlimit="10" stroke-dasharray=""></path><path fill="white" stroke="black" paint-order="fill stroke markers" d=" M 55.49999999999999 16 A 2.5 2.5 0 1 1 55.499998750000096 15.997500000416665" stroke-miterlimit="10" stroke-dasharray=""></path><path fill="white" stroke="black" paint-order="fill stroke markers" d=" M 55.49999999999999 48 A 2.5 2.5 0 1 1 55.499998750000096 47.997500000416665" stroke-miterlimit="10" stroke-dasharray=""></path><text fill="rgb(0,0,0)" stroke="none" font-family="sans-serif" font-size="13px" font-style="normal" font-weight="normal" text-decoration="undefined" x="70.99999999999999" y="11.25" text-anchor="start" dominant-baseline="alphabetic" transform="matrix(1 0 0 1 20 0)" fill-opacity="0.87">seqA</text><text fill="rgb(0,0,0)" stroke="none" font-family="sans-serif" font-size="13px" font-style="normal" font-weight="normal" text-decoration="undefined" x="87.49999999999999" y="27.25" text-anchor="start" dominant-baseline="alphabetic" transform="matrix(1 0 0 1 20 0)" fill-opacity="0.87">seqB</text><text fill="rgb(0,0,0)" stroke="none" font-family="sans-serif" font-size="13px" font-style="normal" font-weight="normal" text-decoration="undefined" x="54.5" y="43.25" text-anchor="start" dominant-baseline="alphabetic" transform="matrix(1 0 0 1 20 0)" fill-opacity="0.87">seqD</text><text fill="rgb(0,0,0)" stroke="none" font-family="sans-serif" font-size="13px" font-style="normal" font-weight="normal" text-decoration="undefined" x="104" y="59.25" text-anchor="start" dominant-baseline="alphabetic" transform="matrix(1 0 0 1 20 0)" fill-opacity="0.87">seqC</text></g></g><g clip-path="url(#msa-9OzCzHKTV0)" transform="translate(160 0)"><defs></defs><g><rect fill="#90ee90" stroke="none" x="0" y="-8" width="12" height="16" transform="matrix(1 0 0 1 0 8)"></rect><text fill="rgb(0,0,0)" stroke="none" font-family="sans-serif" font-size="13px" font-style="normal" font-weight="normal" text-decoration="undefined" x="6" y="4" text-anchor="middle" dominant-baseline="alphabetic" transform="matrix(1 0 0 1 0 8)" fill-opacity="0.87">A</text><rect fill="#ff0000" stroke="none" x="12" y="-8" width="12" height="16" transform="matrix(1 0 0 1 0 8)"></rect><text fill="#fff" stroke="none" font-family="sans-serif" font-size="13px" font-style="normal" font-weight="normal" text-decoration="undefined" x="18" y="4" text-anchor="middle" dominant-baseline="alphabetic" transform="matrix(1 0 0 1 0 8)">T</text><rect fill="#90ee90" stroke="none" x="24" y="-8" width="12" height="16" transform="matrix(1 0 0 1 0 8)"></rect><text fill="rgb(0,0,0)" stroke="none" font-family="sans-serif" font-size="13px" font-style="normal" font-weight="normal" text-decoration="undefined" x="30" y="4" text-anchor="middle" dominant-baseline="alphabetic" transform="matrix(1 0 0 1 0 8)" fill-opacity="0.87">G</text><rect fill="#008000" stroke="none" x="36" y="-8" width="12" height="16" transform="matrix(1 0 0 1 0 8)"></rect><text fill="#fff" stroke="none" font-family="sans-serif" font-size="13px" font-style="normal" font-weight="normal" text-decoration="undefined" x="42" y="4" text-anchor="middle" dominant-baseline="alphabetic" transform="matrix(1 0 0 1 0 8)">C</text><rect fill="#90ee90" stroke="none" x="48" y="-8" width="12" height="16" transform="matrix(1 0 0 1 0 8)"></rect><text fill="rgb(0,0,0)" stroke="none" font-family="sans-serif" font-size="13px" font-style="normal" font-weight="normal" text-decoration="undefined" x="54" y="4" text-anchor="middle" dominant-baseline="alphabetic" transform="matrix(1 0 0 1 0 8)" fill-opacity="0.87">G</text><rect fill="#90ee90" stroke="none" x="60" y="-8" width="12" height="16" transform="matrix(1 0 0 1 0 8)"></rect><text fill="rgb(0,0,0)" stroke="none" font-family="sans-serif" font-size="13px" font-style="normal" font-weight="normal" text-decoration="undefined" x="66" y="4" text-anchor="middle" dominant-baseline="alphabetic" transform="matrix(1 0 0 1 0 8)" fill-opacity="0.87">A</text><rect fill="#ff0000" stroke="none" x="72" y="-8" width="12" height="16" transform="matrix(1 0 0 1 0 8)"></rect><text fill="#fff" stroke="none" font-family="sans-serif" font-size="13px" font-style="normal" font-weight="normal" text-decoration="undefined" x="78" y="4" text-anchor="middle" dominant-baseline="alphabetic" transform="matrix(1 0 0 1 0 8)">T</text><rect fill="#008000" stroke="none" x="84" y="-8" width="12" height="16" transform="matrix(1 0 0 1 0 8)"></rect><text fill="#fff" stroke="none" font-family="sans-serif" font-size="13px" font-style="normal" font-weight="normal" text-decoration="undefined" x="90" y="4" text-anchor="middle" dominant-baseline="alphabetic" transform="matrix(1 0 0 1 0 8)">C</text><rect fill="#90ee90" stroke="none" x="96" y="-8" width="12" height="16" transform="matrix(1 0 0 1 0 8)"></rect><text fill="rgb(0,0,0)" stroke="none" font-family="sans-serif" font-size="13px" font-style="normal" font-weight="normal" text-decoration="undefined" x="102" y="4" text-anchor="middle" dominant-baseline="alphabetic" transform="matrix(1 0 0 1 0 8)" fill-opacity="0.87">G</text><rect fill="#90ee90" stroke="none" x="108" y="-8" width="12" height="16" transform="matrix(1 0 0 1 0 8)"></rect><text fill="rgb(0,0,0)" stroke="none" font-family="sans-serif" font-size="13px" font-style="normal" font-weight="normal" text-decoration="undefined" x="114" y="4" text-anchor="middle" dominant-baseline="alphabetic" transform="matrix(1 0 0 1 0 8)" fill-opacity="0.87">A</text><rect fill="#ff0000" stroke="none" x="120" y="-8" width="12" height="16" transform="matrix(1 0 0 1 0 8)"></rect><text fill="#fff" stroke="none" font-family="sans-serif" font-size="13px" font-style="normal" font-weight="normal" text-decoration="undefined" x="126" y="4" text-anchor="middle" dominant-baseline="alphabetic" transform="matrix(1 0 0 1 0 8)">T</text><rect fill="#008000" stroke="none" x="132" y="-8" width="12" height="16" transform="matrix(1 0 0 1 0 8)"></rect><text fill="#fff" stroke="none" font-family="sans-serif" font-size="13px" font-style="normal" font-weight="normal" text-decoration="undefined" x="138" y="4" text-anchor="middle" dominant-baseline="alphabetic" transform="matrix(1 0 0 1 0 8)">C</text><rect fill="#90ee90" stroke="none" x="144" y="-8" width="12" height="16" transform="matrix(1 0 0 1 0 8)"></rect><text fill="rgb(0,0,0)" stroke="none" font-family="sans-serif" font-size="13px" font-style="normal" font-weight="normal" text-decoration="undefined" x="150" y="4" text-anchor="middle" dominant-baseline="alphabetic" transform="matrix(1 0 0 1 0 8)" fill-opacity="0.87">G</text><rect fill="#90ee90" stroke="none" x="156" y="-8" width="12" height="16" transform="matrix(1 0 0 1 0 8)"></rect><text fill="rgb(0,0,0)" stroke="none" font-family="sans-serif" font-size="13px" font-style="normal" font-weight="normal" text-decoration="undefined" x="162" y="4" text-anchor="middle" dominant-baseline="alphabetic" transform="matrix(1 0 0 1 0 8)" fill-opacity="0.87">A</text><rect fill="#ff0000" stroke="none" x="168" y="-8" width="12" height="16" transform="matrix(1 0 0 1 0 8)"></rect><text fill="#fff" stroke="none" font-family="sans-serif" font-size="13px" font-style="normal" font-weight="normal" text-decoration="undefined" x="174" y="4" text-anchor="middle" dominant-baseline="alphabetic" transform="matrix(1 0 0 1 0 8)">T</text><rect fill="#008000" stroke="none" x="180" y="-8" width="12" height="16" transform="matrix(1 0 0 1 0 8)"></rect><text fill="#fff" stroke="none" font-family="sans-serif" font-size="13px" font-style="normal" font-weight="normal" text-decoration="undefined" x="186" y="4" text-anchor="middle" dominant-baseline="alphabetic" transform="matrix(1 0 0 1 0 8)">C</text><rect fill="#90ee90" stroke="none" x="192" y="-8" width="12" height="16" transform="matrix(1 0 0 1 0 8)"></rect><text fill="rgb(0,0,0)" stroke="none" font-family="sans-serif" font-size="13px" font-style="normal" font-weight="normal" text-decoration="undefined" x="198" y="4" text-anchor="middle" dominant-baseline="alphabetic" transform="matrix(1 0 0 1 0 8)" fill-opacity="0.87">G</text><rect fill="#90ee90" stroke="none" x="204" y="-8" width="12" height="16" transform="matrix(1 0 0 1 0 8)"></rect><text fill="rgb(0,0,0)" stroke="none" font-family="sans-serif" font-size="13px" font-style="normal" font-weight="normal" text-decoration="undefined" x="210" y="4" text-anchor="middle" dominant-baseline="alphabetic" transform="matrix(1 0 0 1 0 8)" fill-opacity="0.87">A</text><rect fill="#ff0000" stroke="none" x="216" y="-8" width="12" height="16" transform="matrix(1 0 0 1 0 8)"></rect><text fill="#fff" stroke="none" font-family="sans-serif" font-size="13px" font-style="normal" font-weight="normal" text-decoration="undefined" x="222" y="4" text-anchor="middle" dominant-baseline="alphabetic" transform="matrix(1 0 0 1 0 8)">T</text><rect fill="#008000" stroke="none" x="228" y="-8" width="12" height="16" transform="matrix(1 0 0 1 0 8)"></rect><text fill="#fff" stroke="none" font-family="sans-serif" font-size="13px" font-style="normal" font-weight="normal" text-decoration="undefined" x="234" y="4" text-anchor="middle" dominant-baseline="alphabetic" transform="matrix(1 0 0 1 0 8)">C</text><rect fill="#90ee90" stroke="none" x="240" y="-8" width="12" height="16" transform="matrix(1 0 0 1 0 8)"></rect><text fill="rgb(0,0,0)" stroke="none" font-family="sans-serif" font-size="13px" font-style="normal" font-weight="normal" text-decoration="undefined" x="246" y="4" text-anchor="middle" dominant-baseline="alphabetic" transform="matrix(1 0 0 1 0 8)" fill-opacity="0.87">G</text><rect fill="#90ee90" stroke="none" x="252" y="-8" width="12" height="16" transform="matrix(1 0 0 1 0 8)"></rect><text fill="rgb(0,0,0)" stroke="none" font-family="sans-serif" font-size="13px" font-style="normal" font-weight="normal" text-decoration="undefined" x="258" y="4" text-anchor="middle" dominant-baseline="alphabetic" transform="matrix(1 0 0 1 0 8)" fill-opacity="0.87">A</text><rect fill="#ff0000" stroke="none" x="264" y="-8" width="12" height="16" transform="matrix(1 0 0 1 0 8)"></rect><text fill="#fff" stroke="none" font-family="sans-serif" font-size="13px" font-style="normal" font-weight="normal" text-decoration="undefined" x="270" y="4" text-anchor="middle" dominant-baseline="alphabetic" transform="matrix(1 0 0 1 0 8)">T</text><rect fill="#008000" stroke="none" x="276" y="-8" width="12" height="16" transform="matrix(1 0 0 1 0 8)"></rect><text fill="#fff" stroke="none" font-family="sans-serif" font-size="13px" font-style="normal" font-weight="normal" text-decoration="undefined" x="282" y="4" text-anchor="middle" dominant-baseline="alphabetic" transform="matrix(1 0 0 1 0 8)">C</text><rect fill="#90ee90" stroke="none" x="288" y="-8" width="12" height="16" transform="matrix(1 0 0 1 0 8)"></rect><text fill="rgb(0,0,0)" stroke="none" font-family="sans-serif" font-size="13px" font-style="normal" font-weight="normal" text-decoration="undefined" x="294" y="4" text-anchor="middle" dominant-baseline="alphabetic" transform="matrix(1 0 0 1 0 8)" fill-opacity="0.87">G</text><rect fill="#90ee90" stroke="none" x="0" y="8" width="12" height="16" transform="matrix(1 0 0 1 0 8)"></rect><text fill="rgb(0,0,0)" stroke="none" font-family="sans-serif" font-size="13px" font-style="normal" font-weight="normal" text-decoration="undefined" x="6" y="20" text-anchor="middle" dominant-baseline="alphabetic" transform="matrix(1 0 0 1 0 8)" fill-opacity="0.87">A</text><rect fill="#ff0000" stroke="none" x="12" y="8" width="12" height="16" transform="matrix(1 0 0 1 0 8)"></rect><text fill="#fff" stroke="none" font-family="sans-serif" font-size="13px" font-style="normal" font-weight="normal" text-decoration="undefined" x="18" y="20" text-anchor="middle" dominant-baseline="alphabetic" transform="matrix(1 0 0 1 0 8)">T</text><rect fill="#90ee90" stroke="none" x="24" y="8" width="12" height="16" transform="matrix(1 0 0 1 0 8)"></rect><text fill="rgb(0,0,0)" stroke="none" font-family="sans-serif" font-size="13px" font-style="normal" font-weight="normal" text-decoration="undefined" x="30" y="20" text-anchor="middle" dominant-baseline="alphabetic" transform="matrix(1 0 0 1 0 8)" fill-opacity="0.87">G</text><rect fill="#008000" stroke="none" x="36" y="8" width="12" height="16" transform="matrix(1 0 0 1 0 8)"></rect><text fill="#fff" stroke="none" font-family="sans-serif" font-size="13px" font-style="normal" font-weight="normal" text-decoration="undefined" x="42" y="20" text-anchor="middle" dominant-baseline="alphabetic" transform="matrix(1 0 0 1 0 8)">C</text><rect fill="#90ee90" stroke="none" x="48" y="8" width="12" height="16" transform="matrix(1 0 0 1 0 8)"></rect><text fill="rgb(0,0,0)" stroke="none" font-family="sans-serif" font-size="13px" font-style="normal" font-weight="normal" text-decoration="undefined" x="54" y="20" text-anchor="middle" dominant-baseline="alphabetic" transform="matrix(1 0 0 1 0 8)" fill-opacity="0.87">G</text><rect fill="#90ee90" stroke="none" x="60" y="8" width="12" height="16" transform="matrix(1 0 0 1 0 8)"></rect><text fill="rgb(0,0,0)" stroke="none" font-family="sans-serif" font-size="13px" font-style="normal" font-weight="normal" text-decoration="undefined" x="66" y="20" text-anchor="middle" dominant-baseline="alphabetic" transform="matrix(1 0 0 1 0 8)" fill-opacity="0.87">A</text><rect fill="#ff0000" stroke="none" x="72" y="8" width="12" height="16" transform="matrix(1 0 0 1 0 8)"></rect><text fill="#fff" stroke="none" font-family="sans-serif" font-size="13px" font-style="normal" font-weight="normal" text-decoration="undefined" x="78" y="20" text-anchor="middle" dominant-baseline="alphabetic" transform="matrix(1 0 0 1 0 8)">T</text><rect fill="#008000" stroke="none" x="84" y="8" width="12" height="16" transform="matrix(1 0 0 1 0 8)"></rect><text fill="#fff" stroke="none" font-family="sans-serif" font-size="13px" font-style="normal" font-weight="normal" text-decoration="undefined" x="90" y="20" text-anchor="middle" dominant-baseline="alphabetic" transform="matrix(1 0 0 1 0 8)">C</text><rect fill="#90ee90" stroke="none" x="96" y="8" width="12" height="16" transform="matrix(1 0 0 1 0 8)"></rect><text fill="rgb(0,0,0)" stroke="none" font-family="sans-serif" font-size="13px" font-style="normal" font-weight="normal" text-decoration="undefined" x="102" y="20" text-anchor="middle" dominant-baseline="alphabetic" transform="matrix(1 0 0 1 0 8)" fill-opacity="0.87">G</text><rect fill="#90ee90" stroke="none" x="108" y="8" width="12" height="16" transform="matrix(1 0 0 1 0 8)"></rect><text fill="rgb(0,0,0)" stroke="none" font-family="sans-serif" font-size="13px" font-style="normal" font-weight="normal" text-decoration="undefined" x="114" y="20" text-anchor="middle" dominant-baseline="alphabetic" transform="matrix(1 0 0 1 0 8)" fill-opacity="0.87">A</text><rect fill="#ff0000" stroke="none" x="120" y="8" width="12" height="16" transform="matrix(1 0 0 1 0 8)"></rect><text fill="#fff" stroke="none" font-family="sans-serif" font-size="13px" font-style="normal" font-weight="normal" text-decoration="undefined" x="126" y="20" text-anchor="middle" dominant-baseline="alphabetic" transform="matrix(1 0 0 1 0 8)">T</text><rect fill="#90ee90" stroke="none" x="132" y="8" width="12" height="16" transform="matrix(1 0 0 1 0 8)"></rect><text fill="rgb(0,0,0)" stroke="none" font-family="sans-serif" font-size="13px" font-style="normal" font-weight="normal" text-decoration="undefined" x="138" y="20" text-anchor="middle" dominant-baseline="alphabetic" transform="matrix(1 0 0 1 0 8)" fill-opacity="0.87">G</text><rect fill="#008000" stroke="none" x="144" y="8" width="12" height="16" transform="matrix(1 0 0 1 0 8)"></rect><text fill="#fff" stroke="none" font-family="sans-serif" font-size="13px" font-style="normal" font-weight="normal" text-decoration="undefined" x="150" y="20" text-anchor="middle" dominant-baseline="alphabetic" transform="matrix(1 0 0 1 0 8)">C</text><rect fill="#90ee90" stroke="none" x="156" y="8" width="12" height="16" transform="matrix(1 0 0 1 0 8)"></rect><text fill="rgb(0,0,0)" stroke="none" font-family="sans-serif" font-size="13px" font-style="normal" font-weight="normal" text-decoration="undefined" x="162" y="20" text-anchor="middle" dominant-baseline="alphabetic" transform="matrix(1 0 0 1 0 8)" fill-opacity="0.87">G</text><rect fill="#90ee90" stroke="none" x="168" y="8" width="12" height="16" transform="matrix(1 0 0 1 0 8)"></rect><text fill="rgb(0,0,0)" stroke="none" font-family="sans-serif" font-size="13px" font-style="normal" font-weight="normal" text-decoration="undefined" x="174" y="20" text-anchor="middle" dominant-baseline="alphabetic" transform="matrix(1 0 0 1 0 8)" fill-opacity="0.87">A</text><rect fill="#ff0000" stroke="none" x="180" y="8" width="12" height="16" transform="matrix(1 0 0 1 0 8)"></rect><text fill="#fff" stroke="none" font-family="sans-serif" font-size="13px" font-style="normal" font-weight="normal" text-decoration="undefined" x="186" y="20" text-anchor="middle" dominant-baseline="alphabetic" transform="matrix(1 0 0 1 0 8)">T</text><rect fill="#008000" stroke="none" x="192" y="8" width="12" height="16" transform="matrix(1 0 0 1 0 8)"></rect><text fill="#fff" stroke="none" font-family="sans-serif" font-size="13px" font-style="normal" font-weight="normal" text-decoration="undefined" x="198" y="20" text-anchor="middle" dominant-baseline="alphabetic" transform="matrix(1 0 0 1 0 8)">C</text><rect fill="#90ee90" stroke="none" x="204" y="8" width="12" height="16" transform="matrix(1 0 0 1 0 8)"></rect><text fill="rgb(0,0,0)" stroke="none" font-family="sans-serif" font-size="13px" font-style="normal" font-weight="normal" text-decoration="undefined" x="210" y="20" text-anchor="middle" dominant-baseline="alphabetic" transform="matrix(1 0 0 1 0 8)" fill-opacity="0.87">G</text><rect fill="#90ee90" stroke="none" x="216" y="8" width="12" height="16" transform="matrix(1 0 0 1 0 8)"></rect><text fill="rgb(0,0,0)" stroke="none" font-family="sans-serif" font-size="13px" font-style="normal" font-weight="normal" text-decoration="undefined" x="222" y="20" text-anchor="middle" dominant-baseline="alphabetic" transform="matrix(1 0 0 1 0 8)" fill-opacity="0.87">A</text><rect fill="#ff0000" stroke="none" x="228" y="8" width="12" height="16" transform="matrix(1 0 0 1 0 8)"></rect><text fill="#fff" stroke="none" font-family="sans-serif" font-size="13px" font-style="normal" font-weight="normal" text-decoration="undefined" x="234" y="20" text-anchor="middle" dominant-baseline="alphabetic" transform="matrix(1 0 0 1 0 8)">T</text><rect fill="#008000" stroke="none" x="240" y="8" width="12" height="16" transform="matrix(1 0 0 1 0 8)"></rect><text fill="#fff" stroke="none" font-family="sans-serif" font-size="13px" font-style="normal" font-weight="normal" text-decoration="undefined" x="246" y="20" text-anchor="middle" dominant-baseline="alphabetic" transform="matrix(1 0 0 1 0 8)">C</text><rect fill="#90ee90" stroke="none" x="252" y="8" width="12" height="16" transform="matrix(1 0 0 1 0 8)"></rect><text fill="rgb(0,0,0)" stroke="none" font-family="sans-serif" font-size="13px" font-style="normal" font-weight="normal" text-decoration="undefined" x="258" y="20" text-anchor="middle" dominant-baseline="alphabetic" transform="matrix(1 0 0 1 0 8)" fill-opacity="0.87">G</text><rect fill="#90ee90" stroke="none" x="264" y="8" width="12" height="16" transform="matrix(1 0 0 1 0 8)"></rect><text fill="rgb(0,0,0)" stroke="none" font-family="sans-serif" font-size="13px" font-style="normal" font-weight="normal" text-decoration="undefined" x="270" y="20" text-anchor="middle" dominant-baseline="alphabetic" transform="matrix(1 0 0 1 0 8)" fill-opacity="0.87">A</text><rect fill="#ff0000" stroke="none" x="276" y="8" width="12" height="16" transform="matrix(1 0 0 1 0 8)"></rect><text fill="#fff" stroke="none" font-family="sans-serif" font-size="13px" font-style="normal" font-weight="normal" text-decoration="undefined" x="282" y="20" text-anchor="middle" dominant-baseline="alphabetic" transform="matrix(1 0 0 1 0 8)">T</text><rect fill="#008000" stroke="none" x="288" y="8" width="12" height="16" transform="matrix(1 0 0 1 0 8)"></rect><text fill="#fff" stroke="none" font-family="sans-serif" font-size="13px" font-style="normal" font-weight="normal" text-decoration="undefined" x="294" y="20" text-anchor="middle" dominant-baseline="alphabetic" transform="matrix(1 0 0 1 0 8)">C</text><rect fill="#90ee90" stroke="none" x="0" y="24" width="12" height="16" transform="matrix(1 0 0 1 0 8)"></rect><text fill="rgb(0,0,0)" stroke="none" font-family="sans-serif" font-size="13px" font-style="normal" font-weight="normal" text-decoration="undefined" x="6" y="36" text-anchor="middle" dominant-baseline="alphabetic" transform="matrix(1 0 0 1 0 8)" fill-opacity="0.87">A</text><rect fill="#ff0000" stroke="none" x="12" y="24" width="12" height="16" transform="matrix(1 0 0 1 0 8)"></rect><text fill="#fff" stroke="none" font-family="sans-serif" font-size="13px" font-style="normal" font-weight="normal" text-decoration="undefined" x="18" y="36" text-anchor="middle" dominant-baseline="alphabetic" transform="matrix(1 0 0 1 0 8)">T</text><rect fill="#90ee90" stroke="none" x="24" y="24" width="12" height="16" transform="matrix(1 0 0 1 0 8)"></rect><text fill="rgb(0,0,0)" stroke="none" font-family="sans-serif" font-size="13px" font-style="normal" font-weight="normal" text-decoration="undefined" x="30" y="36" text-anchor="middle" dominant-baseline="alphabetic" transform="matrix(1 0 0 1 0 8)" fill-opacity="0.87">G</text><rect fill="#008000" stroke="none" x="36" y="24" width="12" height="16" transform="matrix(1 0 0 1 0 8)"></rect><text fill="#fff" stroke="none" font-family="sans-serif" font-size="13px" font-style="normal" font-weight="normal" text-decoration="undefined" x="42" y="36" text-anchor="middle" dominant-baseline="alphabetic" transform="matrix(1 0 0 1 0 8)">C</text><rect fill="#90ee90" stroke="none" x="48" y="24" width="12" height="16" transform="matrix(1 0 0 1 0 8)"></rect><text fill="rgb(0,0,0)" stroke="none" font-family="sans-serif" font-size="13px" font-style="normal" font-weight="normal" text-decoration="undefined" x="54" y="36" text-anchor="middle" dominant-baseline="alphabetic" transform="matrix(1 0 0 1 0 8)" fill-opacity="0.87">G</text><rect fill="#90ee90" stroke="none" x="60" y="24" width="12" height="16" transform="matrix(1 0 0 1 0 8)"></rect><text fill="rgb(0,0,0)" stroke="none" font-family="sans-serif" font-size="13px" font-style="normal" font-weight="normal" text-decoration="undefined" x="66" y="36" text-anchor="middle" dominant-baseline="alphabetic" transform="matrix(1 0 0 1 0 8)" fill-opacity="0.87">A</text><rect fill="#ff0000" stroke="none" x="72" y="24" width="12" height="16" transform="matrix(1 0 0 1 0 8)"></rect><text fill="#fff" stroke="none" font-family="sans-serif" font-size="13px" font-style="normal" font-weight="normal" text-decoration="undefined" x="78" y="36" text-anchor="middle" dominant-baseline="alphabetic" transform="matrix(1 0 0 1 0 8)">T</text><rect fill="#008000" stroke="none" x="84" y="24" width="12" height="16" transform="matrix(1 0 0 1 0 8)"></rect><text fill="#fff" stroke="none" font-family="sans-serif" font-size="13px" font-style="normal" font-weight="normal" text-decoration="undefined" x="90" y="36" text-anchor="middle" dominant-baseline="alphabetic" transform="matrix(1 0 0 1 0 8)">C</text><rect fill="#90ee90" stroke="none" x="96" y="24" width="12" height="16" transform="matrix(1 0 0 1 0 8)"></rect><text fill="rgb(0,0,0)" stroke="none" font-family="sans-serif" font-size="13px" font-style="normal" font-weight="normal" text-decoration="undefined" x="102" y="36" text-anchor="middle" dominant-baseline="alphabetic" transform="matrix(1 0 0 1 0 8)" fill-opacity="0.87">G</text><rect fill="#90ee90" stroke="none" x="108" y="24" width="12" height="16" transform="matrix(1 0 0 1 0 8)"></rect><text fill="rgb(0,0,0)" stroke="none" font-family="sans-serif" font-size="13px" font-style="normal" font-weight="normal" text-decoration="undefined" x="114" y="36" text-anchor="middle" dominant-baseline="alphabetic" transform="matrix(1 0 0 1 0 8)" fill-opacity="0.87">A</text><rect fill="#ff0000" stroke="none" x="120" y="24" width="12" height="16" transform="matrix(1 0 0 1 0 8)"></rect><text fill="#fff" stroke="none" font-family="sans-serif" font-size="13px" font-style="normal" font-weight="normal" text-decoration="undefined" x="126" y="36" text-anchor="middle" dominant-baseline="alphabetic" transform="matrix(1 0 0 1 0 8)">T</text><rect fill="#008000" stroke="none" x="132" y="24" width="12" height="16" transform="matrix(1 0 0 1 0 8)"></rect><text fill="#fff" stroke="none" font-family="sans-serif" font-size="13px" font-style="normal" font-weight="normal" text-decoration="undefined" x="138" y="36" text-anchor="middle" dominant-baseline="alphabetic" transform="matrix(1 0 0 1 0 8)">C</text><rect fill="#90ee90" stroke="none" x="144" y="24" width="12" height="16" transform="matrix(1 0 0 1 0 8)"></rect><text fill="rgb(0,0,0)" stroke="none" font-family="sans-serif" font-size="13px" font-style="normal" font-weight="normal" text-decoration="undefined" x="150" y="36" text-anchor="middle" dominant-baseline="alphabetic" transform="matrix(1 0 0 1 0 8)" fill-opacity="0.87">G</text><rect fill="#90ee90" stroke="none" x="156" y="24" width="12" height="16" transform="matrix(1 0 0 1 0 8)"></rect><text fill="rgb(0,0,0)" stroke="none" font-family="sans-serif" font-size="13px" font-style="normal" font-weight="normal" text-decoration="undefined" x="162" y="36" text-anchor="middle" dominant-baseline="alphabetic" transform="matrix(1 0 0 1 0 8)" fill-opacity="0.87">A</text><rect fill="#ff0000" stroke="none" x="168" y="24" width="12" height="16" transform="matrix(1 0 0 1 0 8)"></rect><text fill="#fff" stroke="none" font-family="sans-serif" font-size="13px" font-style="normal" font-weight="normal" text-decoration="undefined" x="174" y="36" text-anchor="middle" dominant-baseline="alphabetic" transform="matrix(1 0 0 1 0 8)">T</text><rect fill="#008000" stroke="none" x="180" y="24" width="12" height="16" transform="matrix(1 0 0 1 0 8)"></rect><text fill="#fff" stroke="none" font-family="sans-serif" font-size="13px" font-style="normal" font-weight="normal" text-decoration="undefined" x="186" y="36" text-anchor="middle" dominant-baseline="alphabetic" transform="matrix(1 0 0 1 0 8)">C</text><rect fill="#90ee90" stroke="none" x="192" y="24" width="12" height="16" transform="matrix(1 0 0 1 0 8)"></rect><text fill="rgb(0,0,0)" stroke="none" font-family="sans-serif" font-size="13px" font-style="normal" font-weight="normal" text-decoration="undefined" x="198" y="36" text-anchor="middle" dominant-baseline="alphabetic" transform="matrix(1 0 0 1 0 8)" fill-opacity="0.87">G</text><rect fill="#90ee90" stroke="none" x="204" y="24" width="12" height="16" transform="matrix(1 0 0 1 0 8)"></rect><text fill="rgb(0,0,0)" stroke="none" font-family="sans-serif" font-size="13px" font-style="normal" font-weight="normal" text-decoration="undefined" x="210" y="36" text-anchor="middle" dominant-baseline="alphabetic" transform="matrix(1 0 0 1 0 8)" fill-opacity="0.87">A</text><rect fill="#ff0000" stroke="none" x="216" y="24" width="12" height="16" transform="matrix(1 0 0 1 0 8)"></rect><text fill="#fff" stroke="none" font-family="sans-serif" font-size="13px" font-style="normal" font-weight="normal" text-decoration="undefined" x="222" y="36" text-anchor="middle" dominant-baseline="alphabetic" transform="matrix(1 0 0 1 0 8)">T</text><rect fill="#008000" stroke="none" x="228" y="24" width="12" height="16" transform="matrix(1 0 0 1 0 8)"></rect><text fill="#fff" stroke="none" font-family="sans-serif" font-size="13px" font-style="normal" font-weight="normal" text-decoration="undefined" x="234" y="36" text-anchor="middle" dominant-baseline="alphabetic" transform="matrix(1 0 0 1 0 8)">C</text><rect fill="#ff0000" stroke="none" x="240" y="24" width="12" height="16" transform="matrix(1 0 0 1 0 8)"></rect><text fill="#fff" stroke="none" font-family="sans-serif" font-size="13px" font-style="normal" font-weight="normal" text-decoration="undefined" x="246" y="36" text-anchor="middle" dominant-baseline="alphabetic" transform="matrix(1 0 0 1 0 8)">T</text><rect fill="#90ee90" stroke="none" x="252" y="24" width="12" height="16" transform="matrix(1 0 0 1 0 8)"></rect><text fill="rgb(0,0,0)" stroke="none" font-family="sans-serif" font-size="13px" font-style="normal" font-weight="normal" text-decoration="undefined" x="258" y="36" text-anchor="middle" dominant-baseline="alphabetic" transform="matrix(1 0 0 1 0 8)" fill-opacity="0.87">A</text><rect fill="#ff0000" stroke="none" x="264" y="24" width="12" height="16" transform="matrix(1 0 0 1 0 8)"></rect><text fill="#fff" stroke="none" font-family="sans-serif" font-size="13px" font-style="normal" font-weight="normal" text-decoration="undefined" x="270" y="36" text-anchor="middle" dominant-baseline="alphabetic" transform="matrix(1 0 0 1 0 8)">T</text><rect fill="#008000" stroke="none" x="276" y="24" width="12" height="16" transform="matrix(1 0 0 1 0 8)"></rect><text fill="#fff" stroke="none" font-family="sans-serif" font-size="13px" font-style="normal" font-weight="normal" text-decoration="undefined" x="282" y="36" text-anchor="middle" dominant-baseline="alphabetic" transform="matrix(1 0 0 1 0 8)">C</text><rect fill="#90ee90" stroke="none" x="288" y="24" width="12" height="16" transform="matrix(1 0 0 1 0 8)"></rect><text fill="rgb(0,0,0)" stroke="none" font-family="sans-serif" font-size="13px" font-style="normal" font-weight="normal" text-decoration="undefined" x="294" y="36" text-anchor="middle" dominant-baseline="alphabetic" transform="matrix(1 0 0 1 0 8)" fill-opacity="0.87">G</text><rect fill="#90ee90" stroke="none" x="0" y="40" width="12" height="16" transform="matrix(1 0 0 1 0 8)"></rect><text fill="rgb(0,0,0)" stroke="none" font-family="sans-serif" font-size="13px" font-style="normal" font-weight="normal" text-decoration="undefined" x="6" y="52" text-anchor="middle" dominant-baseline="alphabetic" transform="matrix(1 0 0 1 0 8)" fill-opacity="0.87">A</text><rect fill="#ff0000" stroke="none" x="12" y="40" width="12" height="16" transform="matrix(1 0 0 1 0 8)"></rect><text fill="#fff" stroke="none" font-family="sans-serif" font-size="13px" font-style="normal" font-weight="normal" text-decoration="undefined" x="18" y="52" text-anchor="middle" dominant-baseline="alphabetic" transform="matrix(1 0 0 1 0 8)">T</text><rect fill="#90ee90" stroke="none" x="24" y="40" width="12" height="16" transform="matrix(1 0 0 1 0 8)"></rect><text fill="rgb(0,0,0)" stroke="none" font-family="sans-serif" font-size="13px" font-style="normal" font-weight="normal" text-decoration="undefined" x="30" y="52" text-anchor="middle" dominant-baseline="alphabetic" transform="matrix(1 0 0 1 0 8)" fill-opacity="0.87">G</text><rect fill="#008000" stroke="none" x="36" y="40" width="12" height="16" transform="matrix(1 0 0 1 0 8)"></rect><text fill="#fff" stroke="none" font-family="sans-serif" font-size="13px" font-style="normal" font-weight="normal" text-decoration="undefined" x="42" y="52" text-anchor="middle" dominant-baseline="alphabetic" transform="matrix(1 0 0 1 0 8)">C</text><rect fill="#90ee90" stroke="none" x="48" y="40" width="12" height="16" transform="matrix(1 0 0 1 0 8)"></rect><text fill="rgb(0,0,0)" stroke="none" font-family="sans-serif" font-size="13px" font-style="normal" font-weight="normal" text-decoration="undefined" x="54" y="52" text-anchor="middle" dominant-baseline="alphabetic" transform="matrix(1 0 0 1 0 8)" fill-opacity="0.87">G</text><rect fill="#ff0000" stroke="none" x="60" y="40" width="12" height="16" transform="matrix(1 0 0 1 0 8)"></rect><text fill="#fff" stroke="none" font-family="sans-serif" font-size="13px" font-style="normal" font-weight="normal" text-decoration="undefined" x="66" y="52" text-anchor="middle" dominant-baseline="alphabetic" transform="matrix(1 0 0 1 0 8)">T</text><rect fill="#ff0000" stroke="none" x="72" y="40" width="12" height="16" transform="matrix(1 0 0 1 0 8)"></rect><text fill="#fff" stroke="none" font-family="sans-serif" font-size="13px" font-style="normal" font-weight="normal" text-decoration="undefined" x="78" y="52" text-anchor="middle" dominant-baseline="alphabetic" transform="matrix(1 0 0 1 0 8)">T</text><rect fill="#008000" stroke="none" x="84" y="40" width="12" height="16" transform="matrix(1 0 0 1 0 8)"></rect><text fill="#fff" stroke="none" font-family="sans-serif" font-size="13px" font-style="normal" font-weight="normal" text-decoration="undefined" x="90" y="52" text-anchor="middle" dominant-baseline="alphabetic" transform="matrix(1 0 0 1 0 8)">C</text><rect fill="#90ee90" stroke="none" x="96" y="40" width="12" height="16" transform="matrix(1 0 0 1 0 8)"></rect><text fill="rgb(0,0,0)" stroke="none" font-family="sans-serif" font-size="13px" font-style="normal" font-weight="normal" text-decoration="undefined" x="102" y="52" text-anchor="middle" dominant-baseline="alphabetic" transform="matrix(1 0 0 1 0 8)" fill-opacity="0.87">G</text><rect fill="#90ee90" stroke="none" x="108" y="40" width="12" height="16" transform="matrix(1 0 0 1 0 8)"></rect><text fill="rgb(0,0,0)" stroke="none" font-family="sans-serif" font-size="13px" font-style="normal" font-weight="normal" text-decoration="undefined" x="114" y="52" text-anchor="middle" dominant-baseline="alphabetic" transform="matrix(1 0 0 1 0 8)" fill-opacity="0.87">A</text><rect fill="#ff0000" stroke="none" x="120" y="40" width="12" height="16" transform="matrix(1 0 0 1 0 8)"></rect><text fill="#fff" stroke="none" font-family="sans-serif" font-size="13px" font-style="normal" font-weight="normal" text-decoration="undefined" x="126" y="52" text-anchor="middle" dominant-baseline="alphabetic" transform="matrix(1 0 0 1 0 8)">T</text><rect fill="#008000" stroke="none" x="132" y="40" width="12" height="16" transform="matrix(1 0 0 1 0 8)"></rect><text fill="#fff" stroke="none" font-family="sans-serif" font-size="13px" font-style="normal" font-weight="normal" text-decoration="undefined" x="138" y="52" text-anchor="middle" dominant-baseline="alphabetic" transform="matrix(1 0 0 1 0 8)">C</text><rect fill="#90ee90" stroke="none" x="144" y="40" width="12" height="16" transform="matrix(1 0 0 1 0 8)"></rect><text fill="rgb(0,0,0)" stroke="none" font-family="sans-serif" font-size="13px" font-style="normal" font-weight="normal" text-decoration="undefined" x="150" y="52" text-anchor="middle" dominant-baseline="alphabetic" transform="matrix(1 0 0 1 0 8)" fill-opacity="0.87">G</text><rect fill="#90ee90" stroke="none" x="156" y="40" width="12" height="16" transform="matrix(1 0 0 1 0 8)"></rect><text fill="rgb(0,0,0)" stroke="none" font-family="sans-serif" font-size="13px" font-style="normal" font-weight="normal" text-decoration="undefined" x="162" y="52" text-anchor="middle" dominant-baseline="alphabetic" transform="matrix(1 0 0 1 0 8)" fill-opacity="0.87">A</text><rect fill="#ff0000" stroke="none" x="168" y="40" width="12" height="16" transform="matrix(1 0 0 1 0 8)"></rect><text fill="#fff" stroke="none" font-family="sans-serif" font-size="13px" font-style="normal" font-weight="normal" text-decoration="undefined" x="174" y="52" text-anchor="middle" dominant-baseline="alphabetic" transform="matrix(1 0 0 1 0 8)">T</text><rect fill="#008000" stroke="none" x="180" y="40" width="12" height="16" transform="matrix(1 0 0 1 0 8)"></rect><text fill="#fff" stroke="none" font-family="sans-serif" font-size="13px" font-style="normal" font-weight="normal" text-decoration="undefined" x="186" y="52" text-anchor="middle" dominant-baseline="alphabetic" transform="matrix(1 0 0 1 0 8)">C</text><rect fill="#90ee90" stroke="none" x="192" y="40" width="12" height="16" transform="matrix(1 0 0 1 0 8)"></rect><text fill="rgb(0,0,0)" stroke="none" font-family="sans-serif" font-size="13px" font-style="normal" font-weight="normal" text-decoration="undefined" x="198" y="52" text-anchor="middle" dominant-baseline="alphabetic" transform="matrix(1 0 0 1 0 8)" fill-opacity="0.87">A</text><rect fill="#90ee90" stroke="none" x="204" y="40" width="12" height="16" transform="matrix(1 0 0 1 0 8)"></rect><text fill="rgb(0,0,0)" stroke="none" font-family="sans-serif" font-size="13px" font-style="normal" font-weight="normal" text-decoration="undefined" x="210" y="52" text-anchor="middle" dominant-baseline="alphabetic" transform="matrix(1 0 0 1 0 8)" fill-opacity="0.87">A</text><rect fill="#ff0000" stroke="none" x="216" y="40" width="12" height="16" transform="matrix(1 0 0 1 0 8)"></rect><text fill="#fff" stroke="none" font-family="sans-serif" font-size="13px" font-style="normal" font-weight="normal" text-decoration="undefined" x="222" y="52" text-anchor="middle" dominant-baseline="alphabetic" transform="matrix(1 0 0 1 0 8)">T</text><rect fill="#008000" stroke="none" x="228" y="40" width="12" height="16" transform="matrix(1 0 0 1 0 8)"></rect><text fill="#fff" stroke="none" font-family="sans-serif" font-size="13px" font-style="normal" font-weight="normal" text-decoration="undefined" x="234" y="52" text-anchor="middle" dominant-baseline="alphabetic" transform="matrix(1 0 0 1 0 8)">C</text><rect fill="#90ee90" stroke="none" x="240" y="40" width="12" height="16" transform="matrix(1 0 0 1 0 8)"></rect><text fill="rgb(0,0,0)" stroke="none" font-family="sans-serif" font-size="13px" font-style="normal" font-weight="normal" text-decoration="undefined" x="246" y="52" text-anchor="middle" dominant-baseline="alphabetic" transform="matrix(1 0 0 1 0 8)" fill-opacity="0.87">G</text><rect fill="#90ee90" stroke="none" x="252" y="40" width="12" height="16" transform="matrix(1 0 0 1 0 8)"></rect><text fill="rgb(0,0,0)" stroke="none" font-family="sans-serif" font-size="13px" font-style="normal" font-weight="normal" text-decoration="undefined" x="258" y="52" text-anchor="middle" dominant-baseline="alphabetic" transform="matrix(1 0 0 1 0 8)" fill-opacity="0.87">A</text><rect fill="#ff0000" stroke="none" x="264" y="40" width="12" height="16" transform="matrix(1 0 0 1 0 8)"></rect><text fill="#fff" stroke="none" font-family="sans-serif" font-size="13px" font-style="normal" font-weight="normal" text-decoration="undefined" x="270" y="52" text-anchor="middle" dominant-baseline="alphabetic" transform="matrix(1 0 0 1 0 8)">T</text><rect fill="#008000" stroke="none" x="276" y="40" width="12" height="16" transform="matrix(1 0 0 1 0 8)"></rect><text fill="#fff" stroke="none" font-family="sans-serif" font-size="13px" font-style="normal" font-weight="normal" text-decoration="undefined" x="282" y="52" text-anchor="middle" dominant-baseline="alphabetic" transform="matrix(1 0 0 1 0 8)">C</text><rect fill="#90ee90" stroke="none" x="288" y="40" width="12" height="16" transform="matrix(1 0 0 1 0 8)"></rect><text fill="rgb(0,0,0)" stroke="none" font-family="sans-serif" font-size="13px" font-style="normal" font-weight="normal" text-decoration="undefined" x="294" y="52" text-anchor="middle" dominant-baseline="alphabetic" transform="matrix(1 0 0 1 0 8)" fill-opacity="0.87">G</text></g></g></g></svg>