<svg width="772" height="70" xmlns="http://www.w3.org/2000/svg" xmlns:xlink="http://www.w3.org/1999/xlink" viewBox="0 0 772 70"><rect width="100%" height="100%" fill="#fff"></rect><g id="tree-scalebar"><text x="20" y="13" font-size="10" fill="#000000" fill-opacity="0.87">0.1</text><path d="M20 15 v6 h30.33333333333334 v-6" fill="none" stroke="#000000" stroke-opacity="0.87"></path></g><g transform="translate(0 22)"><g><defs><clipPath id="tree-r-quickstart"><rect x="0" y="0" width="160" height="48"></rect></clipPath></defs><g clip-path="url(#tree-r-quickstart)"><g id="tree-panel"><g><path fill="none" stroke="rgb(0,0,0)" d=" M 20 28 L 20 16 L 35.16666666666667 16" stroke-opacity="0.87"></path><path fill="none" stroke="rgb(0,0,0)" d=" M 20 28 L 20 40 L 111.00000000000001 40" stroke-opacity="0.87"></path><path fill="none" stroke="rgb(0,0,0)" d=" M 35.16666666666667 16 L 35.16666666666667 8 L 65.50000000000001 8" stroke-opacity="0.87"></path><path fill="none" stroke="rgb(0,0,0)" d=" M 35.16666666666667 16 L 35.16666666666667 24 L 95.83333333333334 24" stroke-opacity="0.87"></path><path fill="#fff" d=" M 22.5 28 A 2.5 2.5 0 1 1 22.499998750000103 27.997500000416665" paint-order="fill stroke markers" stroke="rgb(0,0,0)" stroke-opacity="0.87"></path><path fill="#fff" d=" M 37.66666666666667 16 A 2.5 2.5 0 1 1 37.666665416666774 15.997500000416665" paint-order="fill stroke markers" stroke="rgb(0,0,0)" stroke-opacity="0.87"></path><text fill="rgb(0,0,0)" font-family="sans-serif" font-size="13px" x="70.50000000000001" y="11.25" text-anchor="start" fill-opacity="0.87">human</text><text fill="rgb(0,0,0)" font-family="sans-serif" font-size="13px" x="100.83333333333334" y="27.25" text-anchor="start" fill-opacity="0.87">mouse</text><text fill="rgb(0,0,0)" font-family="sans-serif" font-size="13px" x="116.00000000000001" y="43.25" text-anchor="start" fill-opacity="0.87">goat</text></g></g></g><defs><clipPath id="msa-r-quickstart"><rect x="0" y="0" width="612" height="48"></rect></clipPath></defs><g clip-path="url(#msa-r-quickstart)" transform="translate(160 0)"><g id="msa-panel"><g><rect fill="#008000" x="0" y="0" width="12" height="16"></rect><text fill="#fff" font-family="sans-serif" font-size="13px" x="6" y="11.25" text-anchor="middle">M</text><rect fill="#008000" x="12" y="0" width="12" height="16"></rect><text fill="#fff" font-family="sans-serif" font-size="13px" x="18" y="11.25" text-anchor="middle">V</text><rect fill="#008000" x="24" y="0" width="12" height="16"></rect><text fill="#fff" font-family="sans-serif" font-size="13px" x="30" y="11.25" text-anchor="middle">L</text><rect fill="#ffa500" x="36" y="0" width="12" height="16"></rect><text fill="rgb(0,0,0)" font-family="sans-serif" font-size="13px" x="42" y="11.25" text-anchor="middle" fill-opacity="0.87">S</text><rect fill="#ffa500" x="48" y="0" width="12" height="16"></rect><text fill="rgb(0,0,0)" font-family="sans-serif" font-size="13px" x="54" y="11.25" text-anchor="middle" fill-opacity="0.87">P</text><rect fill="#fff" x="60" y="0" width="12" height="16"></rect><text fill="rgb(0,0,0)" font-family="sans-serif" font-size="13px" x="66" y="11.25" text-anchor="middle" fill-opacity="0.87">A</text><rect fill="#fff" x="72" y="0" width="12" height="16"></rect><text fill="rgb(0,0,0)" font-family="sans-serif" font-size="13px" x="78" y="11.25" text-anchor="middle" fill-opacity="0.87">D</text><rect fill="#ff0000" x="84" y="0" width="12" height="16"></rect><text fill="#fff" font-family="sans-serif" font-size="13px" x="90" y="11.25" text-anchor="middle">K</text><rect fill="#ffa500" x="96" y="0" width="12" height="16"></rect><text fill="rgb(0,0,0)" font-family="sans-serif" font-size="13px" x="102" y="11.25" text-anchor="middle" fill-opacity="0.87">T</text><rect fill="#fff" x="108" y="0" width="12" height="16"></rect><text fill="rgb(0,0,0)" font-family="sans-serif" font-size="13px" x="114" y="11.25" text-anchor="middle" fill-opacity="0.87">N</text><rect fill="#008000" x="120" y="0" width="12" height="16"></rect><text fill="#fff" font-family="sans-serif" font-size="13px" x="126" y="11.25" text-anchor="middle">V</text><rect fill="#ff0000" x="132" y="0" width="12" height="16"></rect><text fill="#fff" font-family="sans-serif" font-size="13px" x="138" y="11.25" text-anchor="middle">K</text><rect fill="#fff" x="144" y="0" width="12" height="16"></rect><text fill="rgb(0,0,0)" font-family="sans-serif" font-size="13px" x="150" y="11.25" text-anchor="middle" fill-opacity="0.87">A</text><rect fill="#fff" x="156" y="0" width="12" height="16"></rect><text fill="rgb(0,0,0)" font-family="sans-serif" font-size="13px" x="162" y="11.25" text-anchor="middle" fill-opacity="0.87">A</text><rect fill="#0000ff" x="168" y="0" width="12" height="16"></rect><text fill="#fff" font-family="sans-serif" font-size="13px" x="174" y="11.25" text-anchor="middle">W</text><rect fill="#ffa500" x="180" y="0" width="12" height="16"></rect><text fill="rgb(0,0,0)" font-family="sans-serif" font-size="13px" x="186" y="11.25" text-anchor="middle" fill-opacity="0.87">G</text><rect fill="#ff0000" x="192" y="0" width="12" height="16"></rect><text fill="#fff" font-family="sans-serif" font-size="13px" x="198" y="11.25" text-anchor="middle">K</text><rect fill="#008000" x="204" y="0" width="12" height="16"></rect><text fill="#fff" font-family="sans-serif" font-size="13px" x="210" y="11.25" text-anchor="middle">V</text><rect fill="#ffa500" x="216" y="0" width="12" height="16"></rect><text fill="rgb(0,0,0)" font-family="sans-serif" font-size="13px" x="222" y="11.25" text-anchor="middle" fill-opacity="0.87">G</text><rect fill="#fff" x="228" y="0" width="12" height="16"></rect><text fill="rgb(0,0,0)" font-family="sans-serif" font-size="13px" x="234" y="11.25" text-anchor="middle" fill-opacity="0.87">A</text><rect fill="#ff0000" x="240" y="0" width="12" height="16"></rect><text fill="#fff" font-family="sans-serif" font-size="13px" x="246" y="11.25" text-anchor="middle">H</text><rect fill="#fff" x="252" y="0" width="12" height="16"></rect><text fill="rgb(0,0,0)" font-family="sans-serif" font-size="13px" x="258" y="11.25" text-anchor="middle" fill-opacity="0.87">A</text><rect fill="#ffa500" x="264" y="0" width="12" height="16"></rect><text fill="rgb(0,0,0)" font-family="sans-serif" font-size="13px" x="270" y="11.25" text-anchor="middle" fill-opacity="0.87">G</text><rect fill="#fff" x="276" y="0" width="12" height="16"></rect><text fill="rgb(0,0,0)" font-family="sans-serif" font-size="13px" x="282" y="11.25" text-anchor="middle" fill-opacity="0.87">E</text><rect fill="#0000ff" x="288" y="0" width="12" height="16"></rect><text fill="#fff" font-family="sans-serif" font-size="13px" x="294" y="11.25" text-anchor="middle">Y</text><rect fill="#ffa500" x="300" y="0" width="12" height="16"></rect><text fill="rgb(0,0,0)" font-family="sans-serif" font-size="13px" x="306" y="11.25" text-anchor="middle" fill-opacity="0.87">G</text><rect fill="#fff" x="312" y="0" width="12" height="16"></rect><text fill="rgb(0,0,0)" font-family="sans-serif" font-size="13px" x="318" y="11.25" text-anchor="middle" fill-opacity="0.87">A</text><rect fill="#fff" x="324" y="0" width="12" height="16"></rect><text fill="rgb(0,0,0)" font-family="sans-serif" font-size="13px" x="330" y="11.25" text-anchor="middle" fill-opacity="0.87">E</text><rect fill="#fff" x="336" y="0" width="12" height="16"></rect><text fill="rgb(0,0,0)" font-family="sans-serif" font-size="13px" x="342" y="11.25" text-anchor="middle" fill-opacity="0.87">A</text><rect fill="#008000" x="348" y="0" width="12" height="16"></rect><text fill="#fff" font-family="sans-serif" font-size="13px" x="354" y="11.25" text-anchor="middle">L</text><rect fill="#fff" x="360" y="0" width="12" height="16"></rect><text fill="rgb(0,0,0)" font-family="sans-serif" font-size="13px" x="366" y="11.25" text-anchor="middle" fill-opacity="0.87">E</text><rect fill="#ff0000" x="372" y="0" width="12" height="16"></rect><text fill="#fff" font-family="sans-serif" font-size="13px" x="378" y="11.25" text-anchor="middle">R</text><rect fill="#008000" x="384" y="0" width="12" height="16"></rect><text fill="#fff" font-family="sans-serif" font-size="13px" x="390" y="11.25" text-anchor="middle">M</text><rect fill="#0000ff" x="396" y="0" width="12" height="16"></rect><text fill="#fff" font-family="sans-serif" font-size="13px" x="402" y="11.25" text-anchor="middle">F</text><rect fill="#008000" x="408" y="0" width="12" height="16"></rect><text fill="#fff" font-family="sans-serif" font-size="13px" x="414" y="11.25" text-anchor="middle">L</text><rect fill="#ffa500" x="420" y="0" width="12" height="16"></rect><text fill="rgb(0,0,0)" font-family="sans-serif" font-size="13px" x="426" y="11.25" text-anchor="middle" fill-opacity="0.87">S</text><rect fill="#0000ff" x="432" y="0" width="12" height="16"></rect><text fill="#fff" font-family="sans-serif" font-size="13px" x="438" y="11.25" text-anchor="middle">F</text><rect fill="#ffa500" x="444" y="0" width="12" height="16"></rect><text fill="rgb(0,0,0)" font-family="sans-serif" font-size="13px" x="450" y="11.25" text-anchor="middle" fill-opacity="0.87">P</text><rect fill="#ffa500" x="456" y="0" width="12" height="16"></rect><text fill="rgb(0,0,0)" font-family="sans-serif" font-size="13px" x="462" y="11.25" text-anchor="middle" fill-opacity="0.87">T</text><rect fill="#ffa500" x="468" y="0" width="12" height="16"></rect><text fill="rgb(0,0,0)" font-family="sans-serif" font-size="13px" x="474" y="11.25" text-anchor="middle" fill-opacity="0.87">T</text><rect fill="#ff0000" x="480" y="0" width="12" height="16"></rect><text fill="#fff" font-family="sans-serif" font-size="13px" x="486" y="11.25" text-anchor="middle">K</text><rect fill="#ffa500" x="492" y="0" width="12" height="16"></rect><text fill="rgb(0,0,0)" font-family="sans-serif" font-size="13px" x="498" y="11.25" text-anchor="middle" fill-opacity="0.87">T</text><rect fill="#0000ff" x="504" y="0" width="12" height="16"></rect><text fill="#fff" font-family="sans-serif" font-size="13px" x="510" y="11.25" text-anchor="middle">Y</text><rect fill="#0000ff" x="516" y="0" width="12" height="16"></rect><text fill="#fff" font-family="sans-serif" font-size="13px" x="522" y="11.25" text-anchor="middle">F</text><rect fill="#ffa500" x="528" y="0" width="12" height="16"></rect><text fill="rgb(0,0,0)" font-family="sans-serif" font-size="13px" x="534" y="11.25" text-anchor="middle" fill-opacity="0.87">P</text><rect fill="#ff0000" x="540" y="0" width="12" height="16"></rect><text fill="#fff" font-family="sans-serif" font-size="13px" x="546" y="11.25" text-anchor="middle">H</text><rect fill="#0000ff" x="552" y="0" width="12" height="16"></rect><text fill="#fff" font-family="sans-serif" font-size="13px" x="558" y="11.25" text-anchor="middle">F</text><rect fill="#fff" x="564" y="0" width="12" height="16"></rect><text fill="rgb(0,0,0)" font-family="sans-serif" font-size="13px" x="570" y="11.25" text-anchor="middle" fill-opacity="0.87">D</text><rect fill="#008000" x="576" y="0" width="12" height="16"></rect><text fill="#fff" font-family="sans-serif" font-size="13px" x="582" y="11.25" text-anchor="middle">L</text><rect fill="#ffa500" x="588" y="0" width="12" height="16"></rect><text fill="rgb(0,0,0)" font-family="sans-serif" font-size="13px" x="594" y="11.25" text-anchor="middle" fill-opacity="0.87">S</text><rect fill="#ff0000" x="600" y="0" width="12" height="16"></rect><text fill="#fff" font-family="sans-serif" font-size="13px" x="606" y="11.25" text-anchor="middle">H</text><rect fill="#008000" x="0" y="16" width="12" height="16"></rect><text fill="#fff" font-family="sans-serif" font-size="13px" x="6" y="27.25" text-anchor="middle">M</text><rect fill="#008000" x="12" y="16" width="12" height="16"></rect><text fill="#fff" font-family="sans-serif" font-size="13px" x="18" y="27.25" text-anchor="middle">V</text><rect fill="#008000" x="24" y="16" width="12" height="16"></rect><text fill="#fff" font-family="sans-serif" font-size="13px" x="30" y="27.25" text-anchor="middle">L</text><rect fill="#ffa500" x="36" y="16" width="12" height="16"></rect><text fill="rgb(0,0,0)" font-family="sans-serif" font-size="13px" x="42" y="27.25" text-anchor="middle" fill-opacity="0.87">S</text><rect fill="#ffa500" x="48" y="16" width="12" height="16"></rect><text fill="rgb(0,0,0)" font-family="sans-serif" font-size="13px" x="54" y="27.25" text-anchor="middle" fill-opacity="0.87">G</text><rect fill="#fff" x="60" y="16" width="12" height="16"></rect><text fill="rgb(0,0,0)" font-family="sans-serif" font-size="13px" x="66" y="27.25" text-anchor="middle" fill-opacity="0.87">E</text><rect fill="#fff" x="72" y="16" width="12" height="16"></rect><text fill="rgb(0,0,0)" font-family="sans-serif" font-size="13px" x="78" y="27.25" text-anchor="middle" fill-opacity="0.87">D</text><rect fill="#ff0000" x="84" y="16" width="12" height="16"></rect><text fill="#fff" font-family="sans-serif" font-size="13px" x="90" y="27.25" text-anchor="middle">K</text><rect fill="#ffa500" x="96" y="16" width="12" height="16"></rect><text fill="rgb(0,0,0)" font-family="sans-serif" font-size="13px" x="102" y="27.25" text-anchor="middle" fill-opacity="0.87">S</text><rect fill="#fff" x="108" y="16" width="12" height="16"></rect><text fill="rgb(0,0,0)" font-family="sans-serif" font-size="13px" x="114" y="27.25" text-anchor="middle" fill-opacity="0.87">N</text><rect fill="#008000" x="120" y="16" width="12" height="16"></rect><text fill="#fff" font-family="sans-serif" font-size="13px" x="126" y="27.25" text-anchor="middle">I</text><rect fill="#ff0000" x="132" y="16" width="12" height="16"></rect><text fill="#fff" font-family="sans-serif" font-size="13px" x="138" y="27.25" text-anchor="middle">K</text><rect fill="#fff" x="144" y="16" width="12" height="16"></rect><text fill="rgb(0,0,0)" font-family="sans-serif" font-size="13px" x="150" y="27.25" text-anchor="middle" fill-opacity="0.87">A</text><rect fill="#fff" x="156" y="16" width="12" height="16"></rect><text fill="rgb(0,0,0)" font-family="sans-serif" font-size="13px" x="162" y="27.25" text-anchor="middle" fill-opacity="0.87">A</text><rect fill="#0000ff" x="168" y="16" width="12" height="16"></rect><text fill="#fff" font-family="sans-serif" font-size="13px" x="174" y="27.25" text-anchor="middle">W</text><rect fill="#ffa500" x="180" y="16" width="12" height="16"></rect><text fill="rgb(0,0,0)" font-family="sans-serif" font-size="13px" x="186" y="27.25" text-anchor="middle" fill-opacity="0.87">G</text><rect fill="#ff0000" x="192" y="16" width="12" height="16"></rect><text fill="#fff" font-family="sans-serif" font-size="13px" x="198" y="27.25" text-anchor="middle">K</text><rect fill="#008000" x="204" y="16" width="12" height="16"></rect><text fill="#fff" font-family="sans-serif" font-size="13px" x="210" y="27.25" text-anchor="middle">I</text><rect fill="#ffa500" x="216" y="16" width="12" height="16"></rect><text fill="rgb(0,0,0)" font-family="sans-serif" font-size="13px" x="222" y="27.25" text-anchor="middle" fill-opacity="0.87">G</text><rect fill="#ffa500" x="228" y="16" width="12" height="16"></rect><text fill="rgb(0,0,0)" font-family="sans-serif" font-size="13px" x="234" y="27.25" text-anchor="middle" fill-opacity="0.87">G</text><rect fill="#ff0000" x="240" y="16" width="12" height="16"></rect><text fill="#fff" font-family="sans-serif" font-size="13px" x="246" y="27.25" text-anchor="middle">H</text><rect fill="#ffa500" x="252" y="16" width="12" height="16"></rect><text fill="rgb(0,0,0)" font-family="sans-serif" font-size="13px" x="258" y="27.25" text-anchor="middle" fill-opacity="0.87">G</text><rect fill="#fff" x="264" y="16" width="12" height="16"></rect><text fill="rgb(0,0,0)" font-family="sans-serif" font-size="13px" x="270" y="27.25" text-anchor="middle" fill-opacity="0.87">A</text><rect fill="#fff" x="276" y="16" width="12" height="16"></rect><text fill="rgb(0,0,0)" font-family="sans-serif" font-size="13px" x="282" y="27.25" text-anchor="middle" fill-opacity="0.87">E</text><rect fill="#0000ff" x="288" y="16" width="12" height="16"></rect><text fill="#fff" font-family="sans-serif" font-size="13px" x="294" y="27.25" text-anchor="middle">Y</text><rect fill="#ffa500" x="300" y="16" width="12" height="16"></rect><text fill="rgb(0,0,0)" font-family="sans-serif" font-size="13px" x="306" y="27.25" text-anchor="middle" fill-opacity="0.87">G</text><rect fill="#fff" x="312" y="16" width="12" height="16"></rect><text fill="rgb(0,0,0)" font-family="sans-serif" font-size="13px" x="318" y="27.25" text-anchor="middle" fill-opacity="0.87">A</text><rect fill="#fff" x="324" y="16" width="12" height="16"></rect><text fill="rgb(0,0,0)" font-family="sans-serif" font-size="13px" x="330" y="27.25" text-anchor="middle" fill-opacity="0.87">E</text><rect fill="#fff" x="336" y="16" width="12" height="16"></rect><text fill="rgb(0,0,0)" font-family="sans-serif" font-size="13px" x="342" y="27.25" text-anchor="middle" fill-opacity="0.87">A</text><rect fill="#008000" x="348" y="16" width="12" height="16"></rect><text fill="#fff" font-family="sans-serif" font-size="13px" x="354" y="27.25" text-anchor="middle">L</text><rect fill="#fff" x="360" y="16" width="12" height="16"></rect><text fill="rgb(0,0,0)" font-family="sans-serif" font-size="13px" x="366" y="27.25" text-anchor="middle" fill-opacity="0.87">E</text><rect fill="#ff0000" x="372" y="16" width="12" height="16"></rect><text fill="#fff" font-family="sans-serif" font-size="13px" x="378" y="27.25" text-anchor="middle">R</text><rect fill="#008000" x="384" y="16" width="12" height="16"></rect><text fill="#fff" font-family="sans-serif" font-size="13px" x="390" y="27.25" text-anchor="middle">M</text><rect fill="#0000ff" x="396" y="16" width="12" height="16"></rect><text fill="#fff" font-family="sans-serif" font-size="13px" x="402" y="27.25" text-anchor="middle">F</text><rect fill="#fff" x="408" y="16" width="12" height="16"></rect><text fill="rgb(0,0,0)" font-family="sans-serif" font-size="13px" x="414" y="27.25" text-anchor="middle" fill-opacity="0.87">A</text><rect fill="#ffa500" x="420" y="16" width="12" height="16"></rect><text fill="rgb(0,0,0)" font-family="sans-serif" font-size="13px" x="426" y="27.25" text-anchor="middle" fill-opacity="0.87">S</text><rect fill="#0000ff" x="432" y="16" width="12" height="16"></rect><text fill="#fff" font-family="sans-serif" font-size="13px" x="438" y="27.25" text-anchor="middle">F</text><rect fill="#ffa500" x="444" y="16" width="12" height="16"></rect><text fill="rgb(0,0,0)" font-family="sans-serif" font-size="13px" x="450" y="27.25" text-anchor="middle" fill-opacity="0.87">P</text><rect fill="#ffa500" x="456" y="16" width="12" height="16"></rect><text fill="rgb(0,0,0)" font-family="sans-serif" font-size="13px" x="462" y="27.25" text-anchor="middle" fill-opacity="0.87">T</text><rect fill="#ffa500" x="468" y="16" width="12" height="16"></rect><text fill="rgb(0,0,0)" font-family="sans-serif" font-size="13px" x="474" y="27.25" text-anchor="middle" fill-opacity="0.87">T</text><rect fill="#ff0000" x="480" y="16" width="12" height="16"></rect><text fill="#fff" font-family="sans-serif" font-size="13px" x="486" y="27.25" text-anchor="middle">K</text><rect fill="#ffa500" x="492" y="16" width="12" height="16"></rect><text fill="rgb(0,0,0)" font-family="sans-serif" font-size="13px" x="498" y="27.25" text-anchor="middle" fill-opacity="0.87">T</text><rect fill="#0000ff" x="504" y="16" width="12" height="16"></rect><text fill="#fff" font-family="sans-serif" font-size="13px" x="510" y="27.25" text-anchor="middle">Y</text><rect fill="#0000ff" x="516" y="16" width="12" height="16"></rect><text fill="#fff" font-family="sans-serif" font-size="13px" x="522" y="27.25" text-anchor="middle">F</text><rect fill="#ffa500" x="528" y="16" width="12" height="16"></rect><text fill="rgb(0,0,0)" font-family="sans-serif" font-size="13px" x="534" y="27.25" text-anchor="middle" fill-opacity="0.87">P</text><rect fill="#ff0000" x="540" y="16" width="12" height="16"></rect><text fill="#fff" font-family="sans-serif" font-size="13px" x="546" y="27.25" text-anchor="middle">H</text><rect fill="#0000ff" x="552" y="16" width="12" height="16"></rect><text fill="#fff" font-family="sans-serif" font-size="13px" x="558" y="27.25" text-anchor="middle">F</text><rect fill="#fff" x="564" y="16" width="12" height="16"></rect><text fill="rgb(0,0,0)" font-family="sans-serif" font-size="13px" x="570" y="27.25" text-anchor="middle" fill-opacity="0.87">D</text><rect fill="#008000" x="576" y="16" width="12" height="16"></rect><text fill="#fff" font-family="sans-serif" font-size="13px" x="582" y="27.25" text-anchor="middle">V</text><rect fill="#ffa500" x="588" y="16" width="12" height="16"></rect><text fill="rgb(0,0,0)" font-family="sans-serif" font-size="13px" x="594" y="27.25" text-anchor="middle" fill-opacity="0.87">S</text><rect fill="#ff0000" x="600" y="16" width="12" height="16"></rect><text fill="#fff" font-family="sans-serif" font-size="13px" x="606" y="27.25" text-anchor="middle">H</text><rect fill="#008000" x="0" y="32" width="12" height="16"></rect><text fill="#fff" font-family="sans-serif" font-size="13px" x="6" y="43.25" text-anchor="middle">M</text><rect fill="#ffa500" x="12" y="32" width="12" height="16"></rect><text fill="rgb(0,0,0)" font-family="sans-serif" font-size="13px" x="18" y="43.25" text-anchor="middle" fill-opacity="0.87">S</text><rect fill="#008000" x="24" y="32" width="12" height="16"></rect><text fill="#fff" font-family="sans-serif" font-size="13px" x="30" y="43.25" text-anchor="middle">L</text><rect fill="#ffa500" x="36" y="32" width="12" height="16"></rect><text fill="rgb(0,0,0)" font-family="sans-serif" font-size="13px" x="42" y="43.25" text-anchor="middle" fill-opacity="0.87">T</text><rect fill="#ff0000" x="48" y="32" width="12" height="16"></rect><text fill="#fff" font-family="sans-serif" font-size="13px" x="54" y="43.25" text-anchor="middle">R</text><rect fill="#ffa500" x="60" y="32" width="12" height="16"></rect><text fill="rgb(0,0,0)" font-family="sans-serif" font-size="13px" x="66" y="43.25" text-anchor="middle" fill-opacity="0.87">T</text><rect fill="#fff" x="72" y="32" width="12" height="16"></rect><text fill="rgb(0,0,0)" font-family="sans-serif" font-size="13px" x="78" y="43.25" text-anchor="middle" fill-opacity="0.87">E</text><rect fill="#ff0000" x="84" y="32" width="12" height="16"></rect><text fill="#fff" font-family="sans-serif" font-size="13px" x="90" y="43.25" text-anchor="middle">R</text><rect fill="#ffa500" x="96" y="32" width="12" height="16"></rect><text fill="rgb(0,0,0)" font-family="sans-serif" font-size="13px" x="102" y="43.25" text-anchor="middle" fill-opacity="0.87">T</text><rect fill="#008000" x="108" y="32" width="12" height="16"></rect><text fill="#fff" font-family="sans-serif" font-size="13px" x="114" y="43.25" text-anchor="middle">I</text><rect fill="#008000" x="120" y="32" width="12" height="16"></rect><text fill="#fff" font-family="sans-serif" font-size="13px" x="126" y="43.25" text-anchor="middle">I</text><rect fill="#008000" x="132" y="32" width="12" height="16"></rect><text fill="#fff" font-family="sans-serif" font-size="13px" x="138" y="43.25" text-anchor="middle">L</text><rect fill="#ffa500" x="144" y="32" width="12" height="16"></rect><text fill="rgb(0,0,0)" font-family="sans-serif" font-size="13px" x="150" y="43.25" text-anchor="middle" fill-opacity="0.87">S</text><rect fill="#008000" x="156" y="32" width="12" height="16"></rect><text fill="#fff" font-family="sans-serif" font-size="13px" x="162" y="43.25" text-anchor="middle">L</text><rect fill="#0000ff" x="168" y="32" width="12" height="16"></rect><text fill="#fff" font-family="sans-serif" font-size="13px" x="174" y="43.25" text-anchor="middle">W</text><rect fill="#ffa500" x="180" y="32" width="12" height="16"></rect><text fill="rgb(0,0,0)" font-family="sans-serif" font-size="13px" x="186" y="43.25" text-anchor="middle" fill-opacity="0.87">S</text><rect fill="#ff0000" x="192" y="32" width="12" height="16"></rect><text fill="#fff" font-family="sans-serif" font-size="13px" x="198" y="43.25" text-anchor="middle">K</text><rect fill="#008000" x="204" y="32" width="12" height="16"></rect><text fill="#fff" font-family="sans-serif" font-size="13px" x="210" y="43.25" text-anchor="middle">I</text><rect fill="#ffa500" x="216" y="32" width="12" height="16"></rect><text fill="rgb(0,0,0)" font-family="sans-serif" font-size="13px" x="222" y="43.25" text-anchor="middle" fill-opacity="0.87">S</text><rect fill="#ffa500" x="228" y="32" width="12" height="16"></rect><text fill="rgb(0,0,0)" font-family="sans-serif" font-size="13px" x="234" y="43.25" text-anchor="middle" fill-opacity="0.87">T</text><rect fill="#fff" x="240" y="32" width="12" height="16"></rect><text fill="rgb(0,0,0)" font-family="sans-serif" font-size="13px" x="246" y="43.25" text-anchor="middle" fill-opacity="0.87">Q</text><rect fill="#fff" x="252" y="32" width="12" height="16"></rect><text fill="rgb(0,0,0)" font-family="sans-serif" font-size="13px" x="258" y="43.25" text-anchor="middle" fill-opacity="0.87">A</text><rect fill="#fff" x="264" y="32" width="12" height="16"></rect><text fill="rgb(0,0,0)" font-family="sans-serif" font-size="13px" x="270" y="43.25" text-anchor="middle" fill-opacity="0.87">D</text><rect fill="#008000" x="276" y="32" width="12" height="16"></rect><text fill="#fff" font-family="sans-serif" font-size="13px" x="282" y="43.25" text-anchor="middle">V</text><rect fill="#008000" x="288" y="32" width="12" height="16"></rect><text fill="#fff" font-family="sans-serif" font-size="13px" x="294" y="43.25" text-anchor="middle">I</text><rect fill="#ffa500" x="300" y="32" width="12" height="16"></rect><text fill="rgb(0,0,0)" font-family="sans-serif" font-size="13px" x="306" y="43.25" text-anchor="middle" fill-opacity="0.87">G</text><rect fill="#ffa500" x="312" y="32" width="12" height="16"></rect><text fill="rgb(0,0,0)" font-family="sans-serif" font-size="13px" x="318" y="43.25" text-anchor="middle" fill-opacity="0.87">T</text><rect fill="#fff" x="324" y="32" width="12" height="16"></rect><text fill="rgb(0,0,0)" font-family="sans-serif" font-size="13px" x="330" y="43.25" text-anchor="middle" fill-opacity="0.87">E</text><rect fill="#ffa500" x="336" y="32" width="12" height="16"></rect><text fill="rgb(0,0,0)" font-family="sans-serif" font-size="13px" x="342" y="43.25" text-anchor="middle" fill-opacity="0.87">T</text><rect fill="#008000" x="348" y="32" width="12" height="16"></rect><text fill="#fff" font-family="sans-serif" font-size="13px" x="354" y="43.25" text-anchor="middle">L</text><rect fill="#fff" x="360" y="32" width="12" height="16"></rect><text fill="rgb(0,0,0)" font-family="sans-serif" font-size="13px" x="366" y="43.25" text-anchor="middle" fill-opacity="0.87">E</text><rect fill="#ff0000" x="372" y="32" width="12" height="16"></rect><text fill="#fff" font-family="sans-serif" font-size="13px" x="378" y="43.25" text-anchor="middle">R</text><rect fill="#008000" x="384" y="32" width="12" height="16"></rect><text fill="#fff" font-family="sans-serif" font-size="13px" x="390" y="43.25" text-anchor="middle">L</text><rect fill="#0000ff" x="396" y="32" width="12" height="16"></rect><text fill="#fff" font-family="sans-serif" font-size="13px" x="402" y="43.25" text-anchor="middle">F</text><rect fill="#ffa500" x="408" y="32" width="12" height="16"></rect><text fill="rgb(0,0,0)" font-family="sans-serif" font-size="13px" x="414" y="43.25" text-anchor="middle" fill-opacity="0.87">S</text><rect fill="#fff" x="420" y="32" width="12" height="16"></rect><text fill="rgb(0,0,0)" font-family="sans-serif" font-size="13px" x="426" y="43.25" text-anchor="middle" fill-opacity="0.87">C</text><rect fill="#0000ff" x="432" y="32" width="12" height="16"></rect><text fill="#fff" font-family="sans-serif" font-size="13px" x="438" y="43.25" text-anchor="middle">Y</text><rect fill="#ffa500" x="444" y="32" width="12" height="16"></rect><text fill="rgb(0,0,0)" font-family="sans-serif" font-size="13px" x="450" y="43.25" text-anchor="middle" fill-opacity="0.87">P</text><rect fill="#fff" x="456" y="32" width="12" height="16"></rect><text fill="rgb(0,0,0)" font-family="sans-serif" font-size="13px" x="462" y="43.25" text-anchor="middle" fill-opacity="0.87">Q</text><rect fill="#fff" x="468" y="32" width="12" height="16"></rect><text fill="rgb(0,0,0)" font-family="sans-serif" font-size="13px" x="474" y="43.25" text-anchor="middle" fill-opacity="0.87">A</text><rect fill="#ff0000" x="480" y="32" width="12" height="16"></rect><text fill="#fff" font-family="sans-serif" font-size="13px" x="486" y="43.25" text-anchor="middle">K</text><rect fill="#ffa500" x="492" y="32" width="12" height="16"></rect><text fill="rgb(0,0,0)" font-family="sans-serif" font-size="13px" x="498" y="43.25" text-anchor="middle" fill-opacity="0.87">T</text><rect fill="#0000ff" x="504" y="32" width="12" height="16"></rect><text fill="#fff" font-family="sans-serif" font-size="13px" x="510" y="43.25" text-anchor="middle">Y</text><rect fill="#0000ff" x="516" y="32" width="12" height="16"></rect><text fill="#fff" font-family="sans-serif" font-size="13px" x="522" y="43.25" text-anchor="middle">F</text><rect fill="#ffa500" x="528" y="32" width="12" height="16"></rect><text fill="rgb(0,0,0)" font-family="sans-serif" font-size="13px" x="534" y="43.25" text-anchor="middle" fill-opacity="0.87">P</text><rect fill="#ff0000" x="540" y="32" width="12" height="16"></rect><text fill="#fff" font-family="sans-serif" font-size="13px" x="546" y="43.25" text-anchor="middle">H</text><rect fill="#0000ff" x="552" y="32" width="12" height="16"></rect><text fill="#fff" font-family="sans-serif" font-size="13px" x="558" y="43.25" text-anchor="middle">F</text><rect fill="#fff" x="564" y="32" width="12" height="16"></rect><text fill="rgb(0,0,0)" font-family="sans-serif" font-size="13px" x="570" y="43.25" text-anchor="middle" fill-opacity="0.87">D</text><rect fill="#008000" x="576" y="32" width="12" height="16"></rect><text fill="#fff" font-family="sans-serif" font-size="13px" x="582" y="43.25" text-anchor="middle">L</text><rect fill="#ff0000" x="588" y="32" width="12" height="16"></rect><text fill="#fff" font-family="sans-serif" font-size="13px" x="594" y="43.25" text-anchor="middle">H</text><rect fill="#ffa500" x="600" y="32" width="12" height="16"></rect><text fill="rgb(0,0,0)" font-family="sans-serif" font-size="13px" x="606" y="43.25" text-anchor="middle" fill-opacity="0.87">S</text></g></g></g></g></g></svg>